<?xml version="1.0" encoding="utf-8"?>
<!-- Generator: Adobe Illustrator 15.1.0, SVG Export Plug-In . SVG Version: 6.00 Build 0)  -->
<!DOCTYPE svg PUBLIC "-//W3C//DTD SVG 1.1//EN" "http://www.w3.org/Graphics/SVG/1.1/DTD/svg11.dtd">
<svg version="1.1" id="Layer_1" xmlns="http://www.w3.org/2000/svg" xmlns:xlink="http://www.w3.org/1999/xlink" x="0px" y="0px"
	 width="192px" height="64px" viewBox="0 0 192 64" enable-background="new 0 0 192 64" xml:space="preserve">
<g>
	<polygon fill="#59C6FF" points="40.75,11.578 42.164,10.164 32,0 21.836,10.164 23.25,11.578 31,3.828 31,35.486 33,35.486 
		33,3.828 	"/>
	<polygon fill="#59C6FF" points="37,19 37,21 50,21 50,55 14,55 14,21 27,21 27,19 12,19 12,57 52,57 52,19 	"/>
</g>
<polygon fill="#333333" points="102.165,42.75 103.579,44.164 113.743,34 103.579,23.836 102.165,25.25 109.915,33 78.257,33 
	78.257,35 109.915,35 "/>
<g>
	<path fill="#59C6FF" d="M160,9c-13.809,0-25,11.191-25,25s11.191,25,25,25s25-11.191,25-25S173.809,9,160,9z M160,57
		c-12.682,0-23-10.318-23-23s10.318-23,23-23s23,10.318,23,23S172.682,57,160,57z"/>
	<polygon fill="#59C6FF" points="161,19 159,19 159,33 145.066,33 145.066,35 159,35 159,48.934 161,48.934 161,35 175,35 175,33 
		161,33 	"/>
</g>
</svg>
