<?xml version="1.0" encoding="UTF-8"?>
<svg width="192px" height="192px" viewBox="0 0 192 192" version="1.1" xmlns="http://www.w3.org/2000/svg" xmlns:xlink="http://www.w3.org/1999/xlink">
    <title>app-icon</title>
    <defs>
        <filter x="-19.3%" y="-13.7%" width="138.6%" height="127.3%" filterUnits="objectBoundingBox" id="filter-1">
            <feOffset dx="0" dy="2" in="SourceAlpha" result="shadowOffsetOuter1"></feOffset>
            <feGaussianBlur stdDeviation="2" in="shadowOffsetOuter1" result="shadowBlurOuter1"></feGaussianBlur>
            <feColorMatrix values="0 0 0 0 0   0 0 0 0 0   0 0 0 0 0  0 0 0 0.301764642 0" type="matrix" in="shadowBlurOuter1" result="shadowMatrixOuter1"></feColorMatrix>
            <feMerge>
                <feMergeNode in="shadowMatrixOuter1"></feMergeNode>
                <feMergeNode in="SourceGraphic"></feMergeNode>
            </feMerge>
        </filter>
        <path d="M13.345099,161 C22.1824395,161 26.6011097,157.513146 26.6011097,150.539438 L26.6011097,102.350055 C29.1926693,104.355713 34.543169,108.556895 41.5277007,110.934077 C48.4432156,113.287768 56.9857205,113.827504 61.0344828,113.827504 C71.1034483,113.827504 80.137931,111.332186 88.137931,106.341551 C96.137931,101.350916 102.448276,94.5827939 107.068966,86.0371855 C111.689655,77.4915771 114,67.8179484 114,57.0162993 C114,46.2146503 111.482759,36.5068391 106.448276,27.8928659 C101.413793,19.2788926 94.6206897,12.4765883 86.0689655,7.48595297 C77.5172414,2.49531766 67.7931034,0 56.8965517,0 C46.137931,0 36.4827586,2.49531766 27.9310345,7.48595297 C19.3793103,12.4765883 12.6206897,19.2788926 7.65517241,27.8928659 C2.68965517,36.5068391 0.137931034,46.2146503 0,57.0162993 L0,150.539438 C0,153.547492 0.0890882781,161 13.345099,161 Z M58.5690833,87.1777116 C53.0232464,87.1777116 48.0042641,85.8308153 43.5121362,83.1370228 C39.0200084,80.4432302 35.498402,76.7598813 32.9473171,72.0869758 C30.3962321,67.4140704 29.1206897,62.1639237 29.1206897,56.3365358 C29.1206897,50.3991971 30.3962321,45.0940751 32.9473171,40.4211697 C35.498402,35.7482642 39.0200084,32.0649153 43.5121362,29.3711227 C48.0042641,26.6773302 53.0232464,25.3304339 58.5690833,25.3304339 C64.2258368,25.3304339 69.2725484,26.6773302 73.7092178,29.3711227 C78.1458873,32.0649153 81.6674937,35.7482642 84.274037,40.4211697 C86.8805803,45.0940751 88.183852,50.3991971 88.183852,56.3365358 C88.183852,62.1639237 86.8805803,67.4140704 84.274037,72.0869758 C81.6674937,76.7598813 78.1458873,80.4432302 73.7092178,83.1370228 C69.2725484,85.8308153 64.2258368,87.1777116 58.5690833,87.1777116 Z" id="path-2"></path>
        <linearGradient x1="26.3224223%" y1="16.6757557%" x2="74.4065658%" y2="65.393589%" id="linearGradient-4">
            <stop stop-color="#F2711C" offset="0%"></stop>
            <stop stop-color="#A333C8" offset="33.6009474%"></stop>
            <stop stop-color="#2185D0" offset="64.4421984%"></stop>
            <stop stop-color="#21BA45" offset="100%"></stop>
        </linearGradient>
    </defs>
    <g id="app-icon" stroke="none" stroke-width="1" fill="none" fill-rule="evenodd">
        <g id="Rectangle" filter="url(#filter-1)" transform="translate(39.000000, 16.000000)">
            <mask id="mask-3" fill="white">
                <use xlink:href="#path-2"></use>
            </mask>
            <path stroke="#FFFFFF" stroke-width="10" d="M56.8965517,-5 C68.7410507,-5 79.2986293,-2.25424161 88.589123,3.16752658 C97.8938086,8.59757692 105.287069,15.9970828 110.765061,25.3698978 C116.235682,34.7301011 119,45.2734411 119,57.0162993 C119,68.7091306 116.466527,79.169454 111.467188,88.4153449 C106.42027,97.7492282 99.5207587,105.133747 90.7843538,110.583773 C82.0032214,116.061702 72.0919033,118.827504 61.0344828,118.827504 C56.6494859,118.827504 47.4033473,118.215511 39.9167043,115.667436 C37.1140559,114.713556 34.5479097,113.496951 32.2812246,112.229755 L31.7208286,111.912025 L31.6011082,150.547675 C31.5991462,155.864475 29.697432,159.695632 26.3844694,162.309951 C23.4868315,164.596531 19.2159397,166 13.345099,166 C6.74532712,166 2.75706253,164.357742 0.216579142,162.422382 C-4.3244306,158.963004 -4.95808267,154.061842 -4.9975524,151.045601 L-4.9993398,150.847347 L-5.00000022,56.9849279 C-4.85523123,45.2625435 -2.06205862,34.7381881 3.32335605,25.3957942 C8.73236356,16.0124724 16.0955884,8.60376466 25.410877,3.16752658 C34.7066477,-2.25732113 45.196174,-5 56.8965517,-5 Z M58.5690833,30.3304339 C53.9745236,30.3304339 49.808532,31.4254677 46.0835732,33.6592123 C42.3618518,35.8910155 39.4489585,38.9465123 37.3359152,42.8170424 C35.1688664,46.7864964 34.1206897,51.2993579 34.1206897,56.3365358 C34.1206897,61.2722647 35.1728877,65.7290151 37.3359152,69.6911031 C39.4489585,73.5616332 42.3618518,76.61713 46.0835732,78.8489332 C49.808532,81.0826778 53.9745236,82.1777116 58.5690833,82.1777116 C63.2497419,82.1777116 67.4380153,81.0952149 71.1142565,78.8631281 C74.810806,76.6187108 77.7366164,73.5430002 79.9074164,69.6512779 C82.1108756,65.7010054 83.183852,61.2575458 83.183852,56.3365358 C83.183852,51.3142601 82.1150526,46.8146285 79.9074164,42.8568675 C77.7366164,38.9651453 74.810806,35.8894347 71.1142565,33.6450174 C67.4380153,31.4129306 63.2497419,30.3304339 58.5690833,30.3304339 Z"></path>
            <polygon fill="url(#linearGradient-4)" mask="url(#mask-3)" transform="translate(58.500000, 79.500000) rotate(360.000000) translate(-58.500000, -79.500000) " points="-61 -40 178 -40 178 199 -61 199"></polygon>
        </g>
    </g>
</svg>