<svg viewBox="0 0 520 160" version="1.1" xmlns="http://www.w3.org/2000/svg" xmlns:xlink="http://www.w3.org/1999/xlink">
    <defs>
        <path
            d="M6.99348162,139.112903 C9.096097,139.112903 10.7873311,138.450461 12.067184,137.125576 C13.3470368,135.800691 13.9869632,134.133164 13.9869632,132.122994 L13.9869632,132.122994 L13.9869632,95.117591 C17.1865953,98.9551883 21.0490084,101.993286 25.5742024,104.231885 C30.0993964,106.470483 35.0588261,107.589782 40.4524917,107.589782 C47.1260101,107.589782 53.1138931,105.922255 58.4161406,102.5872 C63.7183881,99.2521452 67.9007643,94.7292627 70.9632693,89.0185524 C74.0257744,83.307842 75.5570269,76.843318 75.5570269,69.6249801 C75.5570269,62.4066423 73.8886473,55.9192754 70.5518881,50.1628794 C67.2151289,44.4064834 62.7127894,39.860758 57.0448696,36.5257032 C51.3769499,33.1906483 44.9319767,31.5231209 37.7099499,31.5231209 C30.5793412,31.5231209 24.180077,33.1906483 18.5121572,36.5257032 C12.8442375,39.860758 8.36475252,44.4064834 5.07370235,50.1628794 C1.78265218,55.9192754 0.0914180603,62.4066423 0,69.6249801 L0,69.6249801 L0,132.122994 C0,134.133164 0.662780937,135.800691 1.98834281,137.125576 C3.31390469,138.450461 4.98228429,139.112903 6.99348162,139.112903 Z M37.7099499,95.254648 C33.1390469,95.254648 29.0023796,94.1353488 25.2999482,91.8967504 C21.5975168,89.6581519 18.6949933,86.5972112 16.5923779,82.7139282 C14.4897626,78.8306452 13.4384549,74.4676625 13.4384549,69.6249801 C13.4384549,64.6909264 14.4897626,60.2822581 16.5923779,56.3989751 C18.6949933,52.515692 21.5975168,49.4547513 25.2999482,47.2161529 C29.0023796,44.9775544 33.1390469,43.8582552 37.7099499,43.8582552 C42.372271,43.8582552 46.5317927,44.9775544 50.1885151,47.2161529 C53.8452375,49.4547513 56.747761,52.515692 58.8960854,56.3989751 C61.0444098,60.2822581 62.118572,64.6909264 62.118572,69.6249801 C62.118572,74.4676625 61.0444098,78.8306452 58.8960854,82.7139282 C56.747761,86.5972112 53.8452375,89.6581519 50.1885151,91.8967504 C46.5317927,94.1353488 42.372271,95.254648 37.7099499,95.254648 Z M131.405151,107.589782 C138.078669,107.589782 144.066552,105.922255 149.3688,102.5872 C152.517009,100.607011 155.27042,98.2080668 157.629033,95.3903666 L157.869848,95.0974893 L157.870679,100.188702 C157.870679,102.093073 158.46553,103.689921 159.655231,104.979244 L159.859022,105.191284 C161.184584,106.516169 162.852964,107.178611 164.864161,107.178611 C166.875358,107.178611 168.543738,106.516169 169.8693,105.191284 C171.194862,103.866399 171.857643,102.198872 171.857643,100.188702 L171.857643,100.188702 L171.857643,69.6249801 C171.857643,62.4066423 170.189263,55.9192754 166.852504,50.1628794 C163.515745,44.4064834 159.013405,39.860758 153.345485,36.5257032 C147.677566,33.1906483 141.278302,31.5231209 134.147693,31.5231209 C127.017084,31.5231209 120.594965,33.1906483 114.881337,36.5257032 C109.167708,39.860758 104.642514,44.4064834 101.305755,50.1628794 C97.9689954,55.9192754 96.3006158,62.4066423 96.3006158,69.6249801 C96.3006158,76.843318 97.8318683,83.307842 100.894373,89.0185524 C103.956878,94.7292627 108.139255,99.2521452 113.441502,102.5872 C118.74375,105.922255 124.731633,107.589782 131.405151,107.589782 Z M134.147693,95.254648 C129.57679,95.254648 125.440123,94.1353488 121.737691,91.8967504 C118.03526,89.6581519 115.109882,86.5972112 112.961557,82.7139282 C110.813233,78.8306452 109.739071,74.4676625 109.739071,69.6249801 C109.739071,64.6909264 110.813233,60.2822581 112.961557,56.3989751 C115.109882,52.515692 118.03526,49.4547513 121.737691,47.2161529 C125.440123,44.9775544 129.57679,43.8582552 134.147693,43.8582552 C138.810014,43.8582552 142.969536,44.9775544 146.626258,47.2161529 C150.28298,49.4547513 153.162649,52.515692 155.265265,56.3989751 C157.36788,60.2822581 158.419188,64.6909264 158.419188,69.6249801 C158.419188,74.4676625 157.36788,78.8306452 155.265265,82.7139282 C153.162649,86.5972112 150.28298,89.6581519 146.626258,91.8967504 C142.969536,94.1353488 138.810014,95.254648 134.147693,95.254648 Z M230.448309,107.589782 C237.578917,107.589782 243.978182,105.922255 249.646101,102.5872 C255.314021,99.2521452 259.816361,94.7064198 263.15312,88.9500238 C266.489879,83.1936278 268.158259,76.7062609 268.158259,69.4879231 L268.158259,69.4879231 L268.158259,6.98990942 C268.158259,4.88836803 267.518332,3.19799778 266.238479,1.91879867 C264.958626,0.639599555 263.267392,0 261.164777,0 C259.15358,0 257.4852,0.639599555 256.159638,1.91879867 C254.834076,3.19799778 254.171295,4.88836803 254.171295,6.98990942 L254.171295,6.98990942 L254.171295,43.9953123 C251.063081,40.1577149 247.223523,37.119617 242.65262,34.8810186 C238.081717,32.6424201 233.099432,31.5231209 227.705767,31.5231209 C221.032248,31.5231209 215.044365,33.1906483 209.742118,36.5257032 C204.43987,39.860758 200.257494,44.3836406 197.194989,50.0943509 C194.132484,55.8050612 192.601232,62.2695853 192.601232,69.4879231 C192.601232,76.7062609 194.269611,83.1936278 197.60637,88.9500238 C200.94313,94.7064198 205.468324,99.2521452 211.181952,102.5872 C216.895581,105.922255 223.3177,107.589782 230.448309,107.589782 Z M230.448309,95.254648 C225.877406,95.254648 221.740738,94.1353488 218.038307,91.8967504 C214.335875,89.6581519 211.410498,86.5743683 209.262173,82.6453997 C207.113849,78.716431 206.039687,74.3306054 206.039687,69.4879231 C206.039687,64.5538694 207.113849,60.1680439 209.262173,56.3304465 C211.410498,52.4928492 214.335875,49.4547513 218.038307,47.2161529 C221.740738,44.9775544 225.877406,43.8582552 230.448309,43.8582552 C235.11063,43.8582552 239.270151,44.9775544 242.926874,47.2161529 C246.583596,49.4547513 249.463265,52.4928492 251.565881,56.3304465 C253.668496,60.1680439 254.719804,64.5538694 254.719804,69.4879231 C254.719804,74.3306054 253.668496,78.716431 251.565881,82.6453997 C249.463265,86.5743683 246.583596,89.6581519 242.926874,91.8967504 C239.270151,94.1353488 235.11063,95.254648 230.448309,95.254648 Z M305.082844,107.041554 C307.18546,107.041554 308.899548,106.356269 310.22511,104.985698 C311.550672,103.615128 312.213453,101.924758 312.213453,99.9145876 L312.213453,99.9145876 L312.213453,7.12696647 C312.213453,5.02542508 311.550672,3.31221198 310.22511,1.98732719 C308.899548,0.662442396 307.18546,0 305.082844,0 C303.071647,0 301.380413,0.662442396 300.009142,1.98732719 C298.637871,3.31221198 297.952235,5.02542508 297.952235,7.12696647 L297.952235,7.12696647 L297.952235,99.9145876 C297.952235,101.924758 298.637871,103.615128 300.009142,104.985698 C301.380413,106.356269 303.071647,107.041554 305.082844,107.041554 Z M376.014948,107.589782 C383.419811,107.589782 389.956202,105.967941 395.624122,102.724257 C401.292042,99.4805737 405.725818,95.0033768 408.92545,89.2926665 C412.125082,83.5819561 413.724898,77.0260607 413.724898,69.6249801 C413.724898,62.1325282 412.102228,55.5309471 408.856886,49.8202368 C405.611545,44.1095265 401.154915,39.6323296 395.486995,36.3886461 C389.819075,33.1449627 383.328393,31.5231209 376.014948,31.5231209 C368.610085,31.5231209 362.073694,33.1449627 356.405774,36.3886461 C350.737855,39.6323296 346.281224,44.1095265 343.035883,49.8202368 C339.790542,55.5309471 338.167871,62.1325282 338.167871,69.6249801 C338.167871,77.0260607 339.790542,83.5819561 343.035883,89.2926665 C346.281224,95.0033768 350.737855,99.4805737 356.405774,102.724257 C362.073694,105.967941 368.610085,107.589782 376.014948,107.589782 Z M376.014948,95.254648 C371.261209,95.254648 367.055978,94.1581916 363.399256,91.9652789 C359.742533,89.7723661 356.862865,86.7571111 354.760249,82.9195137 C352.657634,79.0819164 351.606326,74.6504052 351.606326,69.6249801 C351.606326,64.5995551 352.657634,60.145201 354.760249,56.261918 C356.862865,52.378635 359.742533,49.3405371 363.399256,47.1476243 C367.055978,44.9547116 371.261209,43.8582552 376.014948,43.8582552 C380.768687,43.8582552 384.973918,44.9547116 388.630641,47.1476243 C392.287363,49.3405371 395.144177,52.378635 397.201084,56.261918 C399.25799,60.145201 400.286443,64.5995551 400.286443,69.6249801 C400.286443,74.6504052 399.25799,79.0819164 397.201084,82.9195137 C395.144177,86.7571111 392.287363,89.7723661 388.630641,91.9652789 C384.973918,94.1581916 380.768687,95.254648 376.014948,95.254648 Z M472.315564,107.589782 C482.188715,107.589782 490.41634,104.528842 496.99844,98.4069601 C498.278293,97.127761 498.826802,95.688662 498.643965,94.0896631 C498.461129,92.4906642 497.592658,91.0515652 496.038551,89.7723661 C494.850116,88.7672811 493.478845,88.3332671 491.924738,88.4703242 C490.370631,88.6073812 488.862233,89.2698236 487.399544,90.4576514 C485.388347,92.1023359 483.171459,93.3130065 480.74888,94.0896631 C478.326302,94.8663197 475.515196,95.254648 472.315564,95.254648 C467.470407,95.254648 463.219467,94.1353488 459.562745,91.8967504 C455.906022,89.6581519 453.049208,86.620054 450.992301,82.7824567 C448.935395,78.9448594 447.906942,74.5590338 447.906942,69.6249801 C447.906942,64.4168123 448.912541,59.8939298 450.923738,56.0563324 C452.934935,52.2187351 455.723186,49.2263229 459.28849,47.0790958 C462.853795,44.9318687 466.967608,43.8582552 471.629929,43.8582552 C478.303447,43.8582552 483.879949,46.2339107 488.359434,50.9852217 C489.639286,52.2644208 491.056266,53.0639202 492.610373,53.38372 C494.16448,53.7035198 495.58146,53.4065628 496.861313,52.4928492 C498.506838,51.3050215 499.512437,49.934451 499.878109,48.3811378 C500.243781,46.8278246 499.786691,45.320197 498.506838,43.8582552 C494.941534,39.7465438 490.919139,36.6627602 486.439654,34.6069045 C481.960169,32.5510488 477.023594,31.5231209 471.629929,31.5231209 C464.407902,31.5231209 458.008638,33.1449627 452.432136,36.3886461 C446.855634,39.6323296 442.467567,44.1323693 439.267935,49.8887653 C436.068303,55.6451613 434.468487,62.2238996 434.468487,69.6249801 C434.468487,76.843318 436.091158,83.307842 439.336499,89.0185524 C442.58184,94.7292627 447.061325,99.2521452 452.774954,102.5872 C458.488582,105.922255 465.002119,107.589782 472.315564,107.589782 Z"
            id="logo"
        ></path>

        <linearGradient x1="0" y1="50%" x2="100%" y2="50%" id="gradient">
            <stop stop-color="#21BA45" offset="0%"></stop>
            <stop stop-color="#2185D0" offset="33.33%"></stop>
            <stop stop-color="#A333C8" offset="66.66%"></stop>
            <stop stop-color="#F2711C" offset="100%"></stop>
            <animateTransform
                attributeName="gradientTransform"
                type="rotate"
                from="0 0.5 0.5"
                to="360 0.5 0.5"
                dur="30s"
                repeatCount="indefinite"
            />
        </linearGradient>

        <filter x="-20%" y="-20%" width="140%" height="140%" filterUnits="objectBoundingBox" id="shadow">
            <feDropShadow dx="0" dy="2" stdDeviation="2" flood-color="#000000" flood-opacity="0.3" />
        </filter>
    </defs>
    <g transform="translate(10, 10)">
        <use xlink:href="#logo" filter="url(#shadow)" fill="#ffffff" stroke="#ffffff" stroke-width="10"></use>
        <mask id="mask" fill="white">
            <use xlink:href="#logo"></use>
        </mask>
        <rect
            fill="url(#gradient)"
            mask="url(#mask)"
            x="-3.03225806"
            y="-183.475806"
            width="507.056452"
            height="507.056452"
        ></rect>
    </g>
</svg>
