<?xml version="1.0" encoding="UTF-8"?>
<svg
    width="520px"
    height="160px"
    viewBox="0 0 520 160"
    version="1.1"
    xmlns="http://www.w3.org/2000/svg"
    xmlns:xlink="http://www.w3.org/1999/xlink"
>
    <title>logo copy 4</title>
    <g id="logo-copy-4" stroke="none" stroke-width="1" fill="none" fill-rule="evenodd">
        <g id="Group" transform="translate(3.000000, 5.000000)" fill-rule="nonzero" stroke-width="2">
            <path
                d="M45.0870494,37.9507389 C52.5725358,37.9507389 59.2501268,39.6917876 65.1237776,43.1600962 C70.9980425,46.6287675 75.6650122,51.3560104 79.1233304,57.3431732 C82.5789103,63.3255955 84.3125971,70.06659 84.3125971,77.5694581 C84.3125971,85.0623365 82.7221633,91.7704586 79.5548686,97.6974204 C76.3770757,103.644027 72.0355568,108.35186 66.5340714,111.824448 C61.0212512,115.304191 54.7966026,117.049261 47.8570166,117.049261 C42.2476346,117.049261 37.0909705,115.877617 32.3852815,113.541511 C28.7096442,111.716767 25.4554342,109.381887 22.6224068,106.537182 L22.1268329,106.029883 L22.1268329,140.931546 C22.0459528,143.462511 21.291422,145.242386 19.9083021,146.679225 C18.4339165,148.210875 16.4927439,149 14.0634164,149 C11.7441525,149 9.82642476,148.22273 8.30005508,146.691755 C6.85107427,145.238402 6.07935729,143.431135 6.00580804,141.260949 L6,140.915271 L6,77.5596495 L6.01374335,76.8591473 C6.20565412,69.6422154 7.95623213,63.1395712 11.2555536,57.3483372 C14.667694,51.3590742 19.3124626,46.6300027 25.1888195,43.1600962 C31.063535,39.6911589 37.6951476,37.9507389 45.0870494,37.9507389 Z M45.0870494,52.453202 C40.6623104,52.453202 36.6563821,53.5365203 33.0716889,55.7115816 C29.4852559,57.8876985 26.6749702,60.8642486 24.6383732,64.6388806 C22.5899544,68.4354232 21.5728394,72.7468814 21.5728394,77.5694581 C21.5728394,82.3011046 22.5907421,86.5660366 24.6383732,90.3611194 C26.6749702,94.1357514 29.4852559,97.1123015 33.0716889,99.2884184 C36.6563821,101.46348 40.6623104,102.546798 45.0870494,102.546798 C49.5991187,102.546798 53.6270478,101.466026 57.1669436,99.2912975 C60.7132178,97.1126506 63.5260852,94.1320727 65.6093033,90.3531829 C67.70015,86.5604548 68.7397577,82.2981683 68.7397577,77.5694581 C68.7397577,72.749854 67.7009683,68.4410295 65.6093033,64.6468171 C63.5260852,60.8679273 60.7132178,57.8873494 57.1669436,55.7087025 C53.6270478,53.5339743 49.5991187,52.453202 45.0870494,52.453202 Z M142.48917,37.9507389 C149.881072,37.9507389 156.512684,39.6911589 162.3874,43.1600962 C168.261665,46.6287675 172.928634,51.3560104 176.386952,57.3431732 C179.737818,63.1443099 181.469566,69.6587415 181.571443,76.8894779 L181.576219,77.5694581 L181.576219,108.564629 C181.492384,111.100623 180.711623,112.884477 179.276164,114.324267 C177.749794,115.855243 175.832067,116.632512 173.512803,116.632512 C171.193539,116.632512 169.275811,115.855243 167.749441,114.324267 C166.204804,112.65517 165.516115,110.910348 165.454028,108.858115 L165.449386,108.547946 L165.448975,106.020477 C163.269746,108.321725 160.958771,110.206965 158.396257,111.824448 C152.883437,115.304191 146.658788,117.049261 139.719203,117.049261 C132.779617,117.049261 126.554968,115.304191 121.042148,111.824448 C115.540662,108.35186 111.199143,103.644027 108.021351,97.6974204 C104.854056,91.7704586 103.263622,85.0623365 103.263622,77.5694581 C103.263622,70.06659 104.997309,63.3255955 108.452889,57.3431732 C111.911556,51.355406 116.60242,46.6273739 122.524716,43.1583169 C128.445373,39.6902206 135.099168,37.9507389 142.48917,37.9507389 Z M142.48917,52.453202 C138.064431,52.453202 134.058502,53.5365203 130.473809,55.7115816 C126.88425,57.8895956 124.049578,60.868935 121.966916,64.6468171 C119.875251,68.4410295 118.836461,72.749854 118.836461,77.5694581 C118.836461,82.2981683 119.876069,86.5604548 121.966916,90.3531829 C124.049578,94.131065 126.88425,97.1104044 130.473809,99.2884184 C134.058502,101.46348 138.064431,102.546798 142.48917,102.546798 C147.001239,102.546798 151.029168,101.466026 154.569064,99.2912975 C158.112246,97.1145501 160.900711,94.1367478 162.937846,90.3611194 C164.985477,86.5660366 166.00338,82.3011046 166.00338,77.5694581 C166.00338,72.7468814 164.986265,68.4354232 162.937846,64.6388806 C160.900711,60.8632522 158.112246,57.8854499 154.569064,55.7087025 C151.029168,53.5339743 147.001239,52.453202 142.48917,52.453202 Z M270.776425,6 C273.201127,6 275.137746,6.76305828 276.609035,8.23878679 C278.009241,9.64321736 278.765795,11.4706362 278.834673,13.7408703 L278.839841,14.0847291 L278.839815,77.437762 L278.834799,78.1287553 C278.730158,85.3521077 276.998669,91.8604867 273.650574,97.6568268 C270.192256,103.64399 265.525287,108.371233 259.651022,111.839904 C253.776306,115.308841 247.144693,117.049261 239.752792,117.049261 C232.36279,117.049261 225.708995,115.309779 219.788338,111.841683 C213.866042,108.372626 209.175178,103.644594 205.716511,97.6568268 C202.260931,91.6744045 200.527244,84.93341 200.527244,77.4305419 C200.527244,69.9376635 202.117678,63.2295414 205.284973,57.3025796 C208.462765,51.3559727 212.804284,46.6481403 218.30577,43.1755522 C223.81859,39.6958095 230.043239,37.9507389 236.982824,37.9507389 C242.590089,37.9507389 247.76873,39.1214616 252.520231,41.4567218 C256.228031,43.2790261 259.472241,45.6099024 262.253714,48.4482875 L262.713008,48.9260506 L262.713008,14.0693613 C262.792657,11.4310951 263.58449,9.62204696 265.025558,8.22647268 C266.548618,6.75149424 268.461603,6 270.776425,6 Z M239.752792,52.453202 C235.328053,52.453202 231.322124,53.5365203 227.737431,55.7115816 C224.147093,57.8900679 221.311277,60.8473967 219.228104,64.5817484 C217.13756,68.3293132 216.100083,72.6136797 216.100083,77.4305419 C216.100083,82.1619123 217.140946,86.4486535 219.232907,90.2880476 C221.315078,94.1094725 224.148613,97.1108546 227.737431,99.2884184 C231.322124,101.46348 235.328053,102.546798 239.752792,102.546798 C244.264861,102.546798 248.29279,101.466026 251.832686,99.2912975 C255.375161,97.1149845 258.1625,94.1151218 260.199165,90.2959545 C262.247876,86.4541994 263.267002,82.1648181 263.267002,77.4305419 C263.267002,72.6106759 262.251167,68.3236711 260.203835,64.5737832 C258.166212,60.8416805 255.376611,57.8859064 251.832686,55.7087025 C248.29279,53.5339743 244.264861,52.453202 239.752792,52.453202 Z M386.775098,37.9507389 C394.350227,37.9507389 401.070323,39.6441621 406.939885,43.0151006 C412.822037,46.3932694 417.44756,51.055723 420.815618,57.0032938 C424.173876,62.9335603 425.862147,69.7872285 425.862147,77.5694581 C425.862147,85.2559195 424.198492,92.0617011 420.887837,97.9914241 C417.566014,103.941149 412.962705,108.605485 407.078384,111.984899 C401.209835,115.355256 394.443748,117.049261 386.775098,117.049261 C379.106448,117.049261 372.340361,115.355256 366.471812,111.984899 C360.58966,108.606731 355.964137,103.944277 352.59608,97.9967062 C349.23726,92.0654495 347.54955,85.2579189 347.54955,77.5694581 C347.54955,69.7872285 349.237821,62.9335603 352.59608,57.0032938 C355.964137,51.055723 360.58966,46.3932694 366.471812,43.0151006 C372.340361,39.6447443 379.106448,37.9507389 386.775098,37.9507389 Z M386.775098,52.453202 C382.16974,52.453202 378.092714,53.5112862 374.548884,55.6439999 C371.008827,57.7744435 368.223213,60.7277552 366.187923,64.4999644 C364.138733,68.2979369 363.122389,72.6559206 363.122389,77.5694581 C363.122389,82.4802653 364.137437,86.8138042 366.185556,90.5651331 C368.221331,94.2938514 371.008096,97.2251169 374.548884,99.3560001 C378.092714,101.488714 382.16974,102.546798 386.775098,102.546798 C391.380456,102.546798 395.457481,101.488714 399.001311,99.3560001 C402.538906,97.2270385 405.301278,94.298617 407.291024,90.5732185 C409.295865,86.8195557 410.289308,82.4833555 410.289308,77.5694581 C410.289308,72.6528635 409.294603,68.2922234 407.288725,64.4919104 C405.299438,60.723031 402.538209,57.7725422 399.001311,55.6439999 C395.457481,53.5112862 391.380456,52.453202 386.775098,52.453202 Z M483.346228,37.9507389 C488.946842,37.9507389 494.071571,39.0260398 498.722383,41.1680606 C503.370936,43.3090408 507.548236,46.5168979 511.245466,50.7958215 C512.791272,52.5677876 513.288504,54.398523 512.850461,56.2658247 C512.431928,58.0499558 511.307388,59.6450598 509.412324,61.0178301 C507.883531,62.1131202 506.191067,62.4706597 504.334241,62.0872185 C502.582708,61.7255208 500.979099,60.8314883 499.534857,59.3828881 C495.185077,54.7535109 489.794667,52.453202 483.346228,52.453202 C478.834404,52.453202 474.850156,53.4875248 471.398626,55.5735679 C467.953771,57.655577 465.262341,60.5591779 463.31938,64.2796594 C461.356444,68.0383903 460.386011,72.4703059 460.386011,77.5694581 C460.386011,82.392378 461.380211,86.682056 463.384295,90.4343022 C465.375862,94.1631104 468.141073,97.116041 471.681829,99.2912975 C475.225023,101.468052 479.345921,102.546798 484.03872,102.546798 C487.153497,102.546798 489.89128,102.17295 492.250106,101.414063 C494.577575,100.665264 496.707,99.4973351 498.641803,97.909546 C500.294308,96.5628344 502.003335,95.8294351 503.755828,95.6743368 C505.603157,95.5108453 507.233097,96.0286774 508.646016,97.2276196 C510.443575,98.7157736 511.413101,100.402075 511.623976,102.2528 C511.842428,104.170018 511.212164,105.907711 509.676596,107.447913 C502.820879,113.847672 494.287468,117.049261 484.03872,117.049261 C476.461585,117.049261 469.715822,115.308547 463.797269,111.841683 C457.871288,108.370468 453.225625,103.662675 449.859702,97.7188737 C446.499737,91.7855947 444.813172,85.0703382 444.813172,77.5694581 C444.813172,69.884853 446.475934,63.0567945 449.785837,57.0809919 C453.107347,51.084234 457.663683,46.3976041 463.452335,43.0186337 C469.231037,39.6454712 475.860776,37.9507389 483.346228,37.9507389 Z M315.133673,6 C317.552578,6 319.514164,6.78228617 321.035532,8.30824491 C322.555804,9.83310368 323.335587,11.799118 323.335587,14.2236453 L323.335587,14.2236453 L323.335587,108.286778 C323.252094,110.815086 322.477585,112.61982 321.047395,114.103791 C319.522969,115.685542 317.556874,116.493596 315.133673,116.493596 C312.819953,116.493596 310.877443,115.697031 309.301062,114.115893 C307.725831,112.535909 306.931758,110.58908 306.931758,108.269951 L306.931758,108.269951 L306.931758,14.207773 C307.013867,11.573244 307.825013,9.73919769 309.313129,8.29634458 C310.886249,6.77107373 312.824082,6 315.133673,6 Z"
                id="Padloc"
                stroke="#21BA45"
                fill="#21BA45"
                transform="translate(-8,-8)"
                opacity="0"
                stroke-width="0"
            >
                <animateTransform
                    attributeName="transform"
                    type="translate"
                    values="-8,-8; 0,0"
                    keyTimes="0;1"
                    calcMode="spline"
                    keySplines="0.65, 0, 0.35, 1"
                    begin="1s"
                    dur="1.5s"
                    fill="freeze"
                />
                <animate
                    attributeName="opacity"
                    values="0;1"
                    keyTimes="0;1"
                    calcMode="spline"
                    keySplines="0.65, 0, 0.35, 1"
                    begin="1s"
                    dur="1.5s"
                    fill="freeze"
                />
            </path>
            <path
                d="M12.0634164,146 C14.187058,146 15.8952044,145.328571 17.1878558,143.985714 C18.4805072,142.642857 19.1268329,140.952709 19.1268329,138.915271 L19.1268329,138.915271 L19.1268329,101.407882 C22.3584613,105.297537 26.2594985,108.376847 30.8299444,110.645813 C35.4003903,112.914778 40.4094144,114.049261 45.8570166,114.049261 C52.5972702,114.049261 58.645032,112.359113 64.000302,108.978818 C69.3555719,105.598522 73.579772,101.014286 76.672902,95.2261084 C79.7660321,89.437931 81.3125971,82.8857143 81.3125971,75.5694581 C81.3125971,68.253202 79.6275337,61.6778325 76.2574069,55.8433498 C72.8872801,50.008867 68.3399173,45.4014778 62.6153183,42.0211823 C56.8907194,38.6408867 50.3812964,36.9507389 43.0870494,36.9507389 C35.8851346,36.9507389 29.4218777,38.6408867 23.6972788,42.0211823 C17.9726799,45.4014778 13.4484,50.008867 10.1244394,55.8433498 C6.8004787,61.6778325 5.09233224,68.253202 5,75.5694581 L5,75.5694581 L5,138.915271 C5,140.952709 5.66940875,142.642857 7.00822624,143.985714 C8.34704373,145.328571 10.0321071,146 12.0634164,146 Z M43.0870494,101.546798 C38.4704373,101.546798 34.2924034,100.412315 30.5529477,98.1433498 C26.8134919,95.8743842 23.8819433,92.7719212 21.7583017,88.8359606 C19.6346602,84.9 18.5728394,80.4778325 18.5728394,75.5694581 C18.5728394,70.5684729 19.6346602,66.1 21.7583017,62.1640394 C23.8819433,58.2280788 26.8134919,55.1256158 30.5529477,52.8566502 C34.2924034,50.5876847 38.4704373,49.453202 43.0870494,49.453202 C47.7959937,49.453202 51.9971106,50.5876847 55.6904003,52.8566502 C59.3836899,55.1256158 62.3152386,58.2280788 64.4850462,62.1640394 C66.6548539,66.1 67.7397577,70.5684729 67.7397577,75.5694581 C67.7397577,80.4778325 66.6548539,84.9 64.4850462,88.8359606 C62.3152386,92.7719212 59.3836899,95.8743842 55.6904003,98.1433498 C51.9971106,100.412315 47.7959937,101.546798 43.0870494,101.546798 Z M137.719203,114.049261 C144.459456,114.049261 150.507218,112.359113 155.862488,108.978818 C159.042179,106.971767 161.823125,104.540281 164.205323,101.684358 L164.448547,101.387507 L164.449386,106.547783 C164.449386,108.477988 165.050185,110.096497 166.251783,111.40331 L166.457612,111.618227 C167.79643,112.961084 169.481493,113.632512 171.512803,113.632512 C173.544112,113.632512 175.229175,112.961084 176.567993,111.618227 C177.90681,110.275369 178.576219,108.585222 178.576219,106.547783 L178.576219,106.547783 L178.576219,75.5694581 C178.576219,68.253202 176.891156,61.6778325 173.521029,55.8433498 C170.150902,50.008867 165.603539,45.4014778 159.87894,42.0211823 C154.154341,38.6408867 147.691085,36.9507389 140.48917,36.9507389 C133.287255,36.9507389 126.800915,38.6408867 121.03015,42.0211823 C115.259385,45.4014778 110.688939,50.008867 107.318812,55.8433498 C103.948685,61.6778325 102.263622,68.253202 102.263622,75.5694581 C102.263622,82.8857143 103.810187,89.437931 106.903317,95.2261084 C109.996447,101.014286 114.220647,105.598522 119.575917,108.978818 C124.931187,112.359113 130.978949,114.049261 137.719203,114.049261 Z M140.48917,101.546798 C135.872558,101.546798 131.694524,100.412315 127.955068,98.1433498 C124.215612,95.8743842 121.260981,92.7719212 119.091173,88.8359606 C116.921365,84.9 115.836461,80.4778325 115.836461,75.5694581 C115.836461,70.5684729 116.921365,66.1 119.091173,62.1640394 C121.260981,58.2280788 124.215612,55.1256158 127.955068,52.8566502 C131.694524,50.5876847 135.872558,49.453202 140.48917,49.453202 C145.198114,49.453202 149.399231,50.5876847 153.092521,52.8566502 C156.78581,55.1256158 159.694276,58.2280788 161.817917,62.1640394 C163.941559,66.1 165.00338,70.5684729 165.00338,75.5694581 C165.00338,80.4778325 163.941559,84.9 161.817917,88.8359606 C159.694276,92.7719212 156.78581,95.8743842 153.092521,98.1433498 C149.399231,100.412315 145.198114,101.546798 140.48917,101.546798 Z M237.752792,114.049261 C244.954707,114.049261 251.417963,112.359113 257.142562,108.978818 C262.867161,105.598522 267.414524,100.991133 270.784651,95.1566502 C274.154778,89.3221675 275.839841,82.746798 275.839841,75.4305419 L275.839841,75.4305419 L275.839841,12.0847291 C275.839841,9.9546798 275.193515,8.24137931 273.900864,6.94482759 C272.608213,5.64827586 270.900066,5 268.776425,5 C266.745115,5 265.060052,5.64827586 263.721234,6.94482759 C262.382417,8.24137931 261.713008,9.9546798 261.713008,12.0847291 L261.713008,12.0847291 L261.713008,49.5921182 C258.573712,45.7024631 254.695758,42.6231527 250.079146,40.3541872 C245.462534,38.0852217 240.430427,36.9507389 234.982824,36.9507389 C228.242571,36.9507389 222.194809,38.6408867 216.839539,42.0211823 C211.484269,45.4014778 207.260069,49.9857143 204.166939,55.7738916 C201.073809,61.562069 199.527244,68.1142857 199.527244,75.4305419 C199.527244,82.746798 201.212307,89.3221675 204.582434,95.1566502 C207.952561,100.991133 212.523007,105.598522 218.293772,108.978818 C224.064537,112.359113 230.550877,114.049261 237.752792,114.049261 Z M237.752792,101.546798 C233.13618,101.546798 228.958146,100.412315 225.21869,98.1433498 C221.479234,95.8743842 218.524603,92.7487685 216.354795,88.7665025 C214.184987,84.7842365 213.100083,80.3389163 213.100083,75.4305419 C213.100083,70.4295567 214.184987,65.9842365 216.354795,62.0945813 C218.524603,58.2049261 221.479234,55.1256158 225.21869,52.8566502 C228.958146,50.5876847 233.13618,49.453202 237.752792,49.453202 C242.461736,49.453202 246.662853,50.5876847 250.356143,52.8566502 C254.049432,55.1256158 256.957898,58.2049261 259.081539,62.0945813 C261.205181,65.9842365 262.267002,70.4295567 262.267002,75.4305419 C262.267002,80.3389163 261.205181,84.7842365 259.081539,88.7665025 C256.957898,92.7487685 254.049432,95.8743842 250.356143,98.1433498 C246.662853,100.412315 242.461736,101.546798 237.752792,101.546798 Z M313.133673,113.493596 C315.257314,113.493596 316.988544,112.799015 318.327361,111.409852 C319.666179,110.02069 320.335587,108.307389 320.335587,106.269951 L320.335587,106.269951 L320.335587,12.2236453 C320.335587,10.0935961 319.666179,8.35714286 318.327361,7.01428571 C316.988544,5.67142857 315.257314,5 313.133673,5 C311.102363,5 309.394217,5.67142857 308.009233,7.01428571 C306.62425,8.35714286 305.931758,10.0935961 305.931758,12.2236453 L305.931758,12.2236453 L305.931758,106.269951 C305.931758,108.307389 306.62425,110.02069 308.009233,111.409852 C309.394217,112.799015 311.102363,113.493596 313.133673,113.493596 Z M384.775098,114.049261 C392.254009,114.049261 398.855764,112.405419 404.580363,109.117734 C410.304962,105.830049 414.783076,101.292118 418.014704,95.5039409 C421.246333,89.7157635 422.862147,83.070936 422.862147,75.5694581 C422.862147,67.9753695 421.22325,61.2842365 417.945455,55.4960591 C414.667661,49.7078818 410.166464,45.1699507 404.441865,41.882266 C398.717266,38.5945813 392.161677,36.9507389 384.775098,36.9507389 C377.296186,36.9507389 370.694431,38.5945813 364.969832,41.882266 C359.245233,45.1699507 354.744036,49.7078818 351.466242,55.4960591 C348.188447,61.2842365 346.54955,67.9753695 346.54955,75.5694581 C346.54955,83.070936 348.188447,89.7157635 351.466242,95.5039409 C354.744036,101.292118 359.245233,105.830049 364.969832,109.117734 C370.694431,112.405419 377.296186,114.049261 384.775098,114.049261 Z M384.775098,101.546798 C379.973821,101.546798 375.726538,100.435468 372.033248,98.2128079 C368.339959,95.9901478 365.431493,92.9339901 363.307852,89.044335 C361.18421,85.1546798 360.122389,80.6630542 360.122389,75.5694581 C360.122389,70.4758621 361.18421,65.9610837 363.307852,62.0251232 C365.431493,58.0891626 368.339959,55.0098522 372.033248,52.7871921 C375.726538,50.564532 379.973821,49.453202 384.775098,49.453202 C389.576374,49.453202 393.823657,50.564532 397.516947,52.7871921 C401.210237,55.0098522 404.095619,58.0891626 406.173095,62.0251232 C408.25057,65.9610837 409.289308,70.4758621 409.289308,75.5694581 C409.289308,80.6630542 408.25057,85.1546798 406.173095,89.044335 C404.095619,92.9339901 401.210237,95.9901478 397.516947,98.2128079 C393.823657,100.435468 389.576374,101.546798 384.775098,101.546798 Z M482.03872,114.049261 C492.010602,114.049261 500.320503,110.946798 506.968425,104.741872 C508.261076,103.44532 508.81507,101.9867 508.630405,100.36601 C508.445741,98.7453202 507.568584,97.2866995 505.998936,95.9901478 C504.798617,94.9714286 503.413633,94.5315271 501.843985,94.6704433 C500.274337,94.8093596 498.750855,95.4807882 497.273539,96.6847291 C495.24223,98.3517241 493.003173,99.5788177 490.556369,100.36601 C488.109565,101.153202 485.270348,101.546798 482.03872,101.546798 C477.145111,101.546798 472.851662,100.412315 469.158372,98.1433498 C465.465082,95.8743842 462.5797,92.7950739 460.502225,88.9054187 C458.424749,85.0157635 457.386011,80.5704433 457.386011,75.5694581 C457.386011,70.2906404 458.401666,65.7064039 460.432975,61.8167488 C462.464285,57.9270936 465.280418,54.8940887 468.881375,52.717734 C472.482333,50.5413793 476.637284,49.453202 481.346228,49.453202 C488.086481,49.453202 493.718748,51.8610837 498.243028,56.6768473 C499.535679,57.973399 500.966829,58.7837438 502.536477,59.1078818 C504.106125,59.4320197 505.537275,59.1310345 506.829926,58.2049261 C508.491907,57.0009852 509.507561,55.6118227 509.87689,54.0374384 C510.246219,52.4630542 509.784558,50.9349754 508.491907,49.453202 C504.890949,45.2857143 500.828331,42.1600985 496.304051,40.0763547 C491.779771,37.9926108 486.79383,36.9507389 481.346228,36.9507389 C474.051981,36.9507389 467.588724,38.5945813 461.956457,41.882266 C456.324191,45.1699507 451.892243,49.7310345 448.660615,55.5655172 C445.428986,61.4 443.813172,68.0679803 443.813172,75.5694581 C443.813172,82.8857143 445.452069,89.437931 448.729864,95.2261084 C452.007658,101.014286 456.531938,105.598522 462.302703,108.978818 C468.073468,112.359113 474.65214,114.049261 482.03872,114.049261 Z"
                id="Padloc"
                stroke="#2185D0"
                fill="#2185D0"
                transform="translate(-6,-6)"
                opacity="0"
            >
                <animateTransform
                    attributeName="transform"
                    type="translate"
                    values="-6,-6; 0,0"
                    keyTimes="0;1"
                    calcMode="spline"
                    keySplines="0.65, 0, 0.35, 1"
                    begin="1s"
                    dur="1.5s"
                    fill="freeze"
                />
                <animate
                    attributeName="opacity"
                    values="0;1"
                    keyTimes="0;1"
                    calcMode="spline"
                    keySplines="0.65, 0, 0.35, 1"
                    begin="1s"
                    dur="1.5s"
                    fill="freeze"
                />
            </path>
            <path
                d="M10.0634164,144 C12.187058,144 13.8952044,143.328571 15.1878558,141.985714 C16.4805072,140.642857 17.1268329,138.952709 17.1268329,136.915271 L17.1268329,136.915271 L17.1268329,99.4078818 C20.3584613,103.297537 24.2594985,106.376847 28.8299444,108.645813 C33.4003903,110.914778 38.4094144,112.049261 43.8570166,112.049261 C50.5972702,112.049261 56.645032,110.359113 62.000302,106.978818 C67.3555719,103.598522 71.579772,99.0142857 74.672902,93.2261084 C77.7660321,87.437931 79.3125971,80.8857143 79.3125971,73.5694581 C79.3125971,66.253202 77.6275337,59.6778325 74.2574069,53.8433498 C70.8872801,48.008867 66.3399173,43.4014778 60.6153183,40.0211823 C54.8907194,36.6408867 48.3812964,34.9507389 41.0870494,34.9507389 C33.8851346,34.9507389 27.4218777,36.6408867 21.6972788,40.0211823 C15.9726799,43.4014778 11.4484,48.008867 8.12443937,53.8433498 C4.8004787,59.6778325 3.09233224,66.253202 3,73.5694581 L3,73.5694581 L3,136.915271 C3,138.952709 3.66940875,140.642857 5.00822624,141.985714 C6.34704373,143.328571 8.03210713,144 10.0634164,144 Z M41.0870494,99.546798 C36.4704373,99.546798 32.2924034,98.4123153 28.5529477,96.1433498 C24.8134919,93.8743842 21.8819433,90.7719212 19.7583017,86.8359606 C17.6346602,82.9 16.5728394,78.4778325 16.5728394,73.5694581 C16.5728394,68.5684729 17.6346602,64.1 19.7583017,60.1640394 C21.8819433,56.2280788 24.8134919,53.1256158 28.5529477,50.8566502 C32.2924034,48.5876847 36.4704373,47.453202 41.0870494,47.453202 C45.7959937,47.453202 49.9971106,48.5876847 53.6904003,50.8566502 C57.3836899,53.1256158 60.3152386,56.2280788 62.4850462,60.1640394 C64.6548539,64.1 65.7397577,68.5684729 65.7397577,73.5694581 C65.7397577,78.4778325 64.6548539,82.9 62.4850462,86.8359606 C60.3152386,90.7719212 57.3836899,93.8743842 53.6904003,96.1433498 C49.9971106,98.4123153 45.7959937,99.546798 41.0870494,99.546798 Z M135.719203,112.049261 C142.459456,112.049261 148.507218,110.359113 153.862488,106.978818 C157.042179,104.971767 159.823125,102.540281 162.205323,99.6843577 L162.448547,99.3875074 L162.449386,104.547783 C162.449386,106.477988 163.050185,108.096497 164.251783,109.40331 L164.457612,109.618227 C165.79643,110.961084 167.481493,111.632512 169.512803,111.632512 C171.544112,111.632512 173.229175,110.961084 174.567993,109.618227 C175.90681,108.275369 176.576219,106.585222 176.576219,104.547783 L176.576219,104.547783 L176.576219,73.5694581 C176.576219,66.253202 174.891156,59.6778325 171.521029,53.8433498 C168.150902,48.008867 163.603539,43.4014778 157.87894,40.0211823 C152.154341,36.6408867 145.691085,34.9507389 138.48917,34.9507389 C131.287255,34.9507389 124.800915,36.6408867 119.03015,40.0211823 C113.259385,43.4014778 108.688939,48.008867 105.318812,53.8433498 C101.948685,59.6778325 100.263622,66.253202 100.263622,73.5694581 C100.263622,80.8857143 101.810187,87.437931 104.903317,93.2261084 C107.996447,99.0142857 112.220647,103.598522 117.575917,106.978818 C122.931187,110.359113 128.978949,112.049261 135.719203,112.049261 Z M138.48917,99.546798 C133.872558,99.546798 129.694524,98.4123153 125.955068,96.1433498 C122.215612,93.8743842 119.260981,90.7719212 117.091173,86.8359606 C114.921365,82.9 113.836461,78.4778325 113.836461,73.5694581 C113.836461,68.5684729 114.921365,64.1 117.091173,60.1640394 C119.260981,56.2280788 122.215612,53.1256158 125.955068,50.8566502 C129.694524,48.5876847 133.872558,47.453202 138.48917,47.453202 C143.198114,47.453202 147.399231,48.5876847 151.092521,50.8566502 C154.78581,53.1256158 157.694276,56.2280788 159.817917,60.1640394 C161.941559,64.1 163.00338,68.5684729 163.00338,73.5694581 C163.00338,78.4778325 161.941559,82.9 159.817917,86.8359606 C157.694276,90.7719212 154.78581,93.8743842 151.092521,96.1433498 C147.399231,98.4123153 143.198114,99.546798 138.48917,99.546798 Z M235.752792,112.049261 C242.954707,112.049261 249.417963,110.359113 255.142562,106.978818 C260.867161,103.598522 265.414524,98.991133 268.784651,93.1566502 C272.154778,87.3221675 273.839841,80.746798 273.839841,73.4305419 L273.839841,73.4305419 L273.839841,10.0847291 C273.839841,7.9546798 273.193515,6.24137931 271.900864,4.94482759 C270.608213,3.64827586 268.900066,3 266.776425,3 C264.745115,3 263.060052,3.64827586 261.721234,4.94482759 C260.382417,6.24137931 259.713008,7.9546798 259.713008,10.0847291 L259.713008,10.0847291 L259.713008,47.5921182 C256.573712,43.7024631 252.695758,40.6231527 248.079146,38.3541872 C243.462534,36.0852217 238.430427,34.9507389 232.982824,34.9507389 C226.242571,34.9507389 220.194809,36.6408867 214.839539,40.0211823 C209.484269,43.4014778 205.260069,47.9857143 202.166939,53.7738916 C199.073809,59.562069 197.527244,66.1142857 197.527244,73.4305419 C197.527244,80.746798 199.212307,87.3221675 202.582434,93.1566502 C205.952561,98.991133 210.523007,103.598522 216.293772,106.978818 C222.064537,110.359113 228.550877,112.049261 235.752792,112.049261 Z M235.752792,99.546798 C231.13618,99.546798 226.958146,98.4123153 223.21869,96.1433498 C219.479234,93.8743842 216.524603,90.7487685 214.354795,86.7665025 C212.184987,82.7842365 211.100083,78.3389163 211.100083,73.4305419 C211.100083,68.4295567 212.184987,63.9842365 214.354795,60.0945813 C216.524603,56.2049261 219.479234,53.1256158 223.21869,50.8566502 C226.958146,48.5876847 231.13618,47.453202 235.752792,47.453202 C240.461736,47.453202 244.662853,48.5876847 248.356143,50.8566502 C252.049432,53.1256158 254.957898,56.2049261 257.081539,60.0945813 C259.205181,63.9842365 260.267002,68.4295567 260.267002,73.4305419 C260.267002,78.3389163 259.205181,82.7842365 257.081539,86.7665025 C254.957898,90.7487685 252.049432,93.8743842 248.356143,96.1433498 C244.662853,98.4123153 240.461736,99.546798 235.752792,99.546798 Z M311.133673,111.493596 C313.257314,111.493596 314.988544,110.799015 316.327361,109.409852 C317.666179,108.02069 318.335587,106.307389 318.335587,104.269951 L318.335587,104.269951 L318.335587,10.2236453 C318.335587,8.09359606 317.666179,6.35714286 316.327361,5.01428571 C314.988544,3.67142857 313.257314,3 311.133673,3 C309.102363,3 307.394217,3.67142857 306.009233,5.01428571 C304.62425,6.35714286 303.931758,8.09359606 303.931758,10.2236453 L303.931758,10.2236453 L303.931758,104.269951 C303.931758,106.307389 304.62425,108.02069 306.009233,109.409852 C307.394217,110.799015 309.102363,111.493596 311.133673,111.493596 Z M382.775098,112.049261 C390.254009,112.049261 396.855764,110.405419 402.580363,107.117734 C408.304962,103.830049 412.783076,99.2921182 416.014704,93.5039409 C419.246333,87.7157635 420.862147,81.070936 420.862147,73.5694581 C420.862147,65.9753695 419.22325,59.2842365 415.945455,53.4960591 C412.667661,47.7078818 408.166464,43.1699507 402.441865,39.882266 C396.717266,36.5945813 390.161677,34.9507389 382.775098,34.9507389 C375.296186,34.9507389 368.694431,36.5945813 362.969832,39.882266 C357.245233,43.1699507 352.744036,47.7078818 349.466242,53.4960591 C346.188447,59.2842365 344.54955,65.9753695 344.54955,73.5694581 C344.54955,81.070936 346.188447,87.7157635 349.466242,93.5039409 C352.744036,99.2921182 357.245233,103.830049 362.969832,107.117734 C368.694431,110.405419 375.296186,112.049261 382.775098,112.049261 Z M382.775098,99.546798 C377.973821,99.546798 373.726538,98.435468 370.033248,96.2128079 C366.339959,93.9901478 363.431493,90.9339901 361.307852,87.044335 C359.18421,83.1546798 358.122389,78.6630542 358.122389,73.5694581 C358.122389,68.4758621 359.18421,63.9610837 361.307852,60.0251232 C363.431493,56.0891626 366.339959,53.0098522 370.033248,50.7871921 C373.726538,48.564532 377.973821,47.453202 382.775098,47.453202 C387.576374,47.453202 391.823657,48.564532 395.516947,50.7871921 C399.210237,53.0098522 402.095619,56.0891626 404.173095,60.0251232 C406.25057,63.9610837 407.289308,68.4758621 407.289308,73.5694581 C407.289308,78.6630542 406.25057,83.1546798 404.173095,87.044335 C402.095619,90.9339901 399.210237,93.9901478 395.516947,96.2128079 C391.823657,98.435468 387.576374,99.546798 382.775098,99.546798 Z M480.03872,112.049261 C490.010602,112.049261 498.320503,108.946798 504.968425,102.741872 C506.261076,101.44532 506.81507,99.9866995 506.630405,98.3660099 C506.445741,96.7453202 505.568584,95.2866995 503.998936,93.9901478 C502.798617,92.9714286 501.413633,92.5315271 499.843985,92.6704433 C498.274337,92.8093596 496.750855,93.4807882 495.273539,94.6847291 C493.24223,96.3517241 491.003173,97.5788177 488.556369,98.3660099 C486.109565,99.153202 483.270348,99.546798 480.03872,99.546798 C475.145111,99.546798 470.851662,98.4123153 467.158372,96.1433498 C463.465082,93.8743842 460.5797,90.7950739 458.502225,86.9054187 C456.424749,83.0157635 455.386011,78.5704433 455.386011,73.5694581 C455.386011,68.2906404 456.401666,63.7064039 458.432975,59.8167488 C460.464285,55.9270936 463.280418,52.8940887 466.881375,50.717734 C470.482333,48.5413793 474.637284,47.453202 479.346228,47.453202 C486.086481,47.453202 491.718748,49.8610837 496.243028,54.6768473 C497.535679,55.973399 498.966829,56.7837438 500.536477,57.1078818 C502.106125,57.4320197 503.537275,57.1310345 504.829926,56.2049261 C506.491907,55.0009852 507.507561,53.6118227 507.87689,52.0374384 C508.246219,50.4630542 507.784558,48.9349754 506.491907,47.453202 C502.890949,43.2857143 498.828331,40.1600985 494.304051,38.0763547 C489.779771,35.9926108 484.79383,34.9507389 479.346228,34.9507389 C472.051981,34.9507389 465.588724,36.5945813 459.956457,39.882266 C454.324191,43.1699507 449.892243,47.7310345 446.660615,53.5655172 C443.428986,59.4 441.813172,66.0679803 441.813172,73.5694581 C441.813172,80.8857143 443.452069,87.437931 446.729864,93.2261084 C450.007658,99.0142857 454.531938,103.598522 460.302703,106.978818 C466.073468,110.359113 472.65214,112.049261 480.03872,112.049261 Z"
                id="Padloc"
                stroke="#A333C8"
                fill="#A333C8"
                transform="translate(-4,-4)"
                opacity="0"
            >
                <animateTransform
                    attributeName="transform"
                    type="translate"
                    values="-4,-4; 0,0"
                    keyTimes="0;1"
                    calcMode="spline"
                    keySplines="0.65, 0, 0.35, 1"
                    begin="1s"
                    dur="1.5s"
                    fill="freeze"
                />
                <animate
                    attributeName="opacity"
                    values="0;1"
                    keyTimes="0;1"
                    calcMode="spline"
                    keySplines="0.65, 0, 0.35, 1"
                    begin="1s"
                    dur="1.5s"
                    fill="freeze"
                />
            </path>
            <path
                d="M8.06341643,142 C10.187058,142 11.8952044,141.328571 13.1878558,139.985714 C14.4805072,138.642857 15.1268329,136.952709 15.1268329,134.915271 L15.1268329,134.915271 L15.1268329,97.4078818 C18.3584613,101.297537 22.2594985,104.376847 26.8299444,106.645813 C31.4003903,108.914778 36.4094144,110.049261 41.8570166,110.049261 C48.5972702,110.049261 54.645032,108.359113 60.000302,104.978818 C65.3555719,101.598522 69.579772,97.0142857 72.672902,91.2261084 C75.7660321,85.437931 77.3125971,78.8857143 77.3125971,71.5694581 C77.3125971,64.253202 75.6275337,57.6778325 72.2574069,51.8433498 C68.8872801,46.008867 64.3399173,41.4014778 58.6153183,38.0211823 C52.8907194,34.6408867 46.3812964,32.9507389 39.0870494,32.9507389 C31.8851346,32.9507389 25.4218777,34.6408867 19.6972788,38.0211823 C13.9726799,41.4014778 9.44840005,46.008867 6.12443937,51.8433498 C2.8004787,57.6778325 1.09233224,64.253202 1,71.5694581 L1,71.5694581 L1,134.915271 C1,136.952709 1.66940875,138.642857 3.00822624,139.985714 C4.34704373,141.328571 6.03210713,142 8.06341643,142 Z M39.0870494,97.546798 C34.4704373,97.546798 30.2924034,96.4123153 26.5529477,94.1433498 C22.8134919,91.8743842 19.8819433,88.7719212 17.7583017,84.8359606 C15.6346602,80.9 14.5728394,76.4778325 14.5728394,71.5694581 C14.5728394,66.5684729 15.6346602,62.1 17.7583017,58.1640394 C19.8819433,54.2280788 22.8134919,51.1256158 26.5529477,48.8566502 C30.2924034,46.5876847 34.4704373,45.453202 39.0870494,45.453202 C43.7959937,45.453202 47.9971106,46.5876847 51.6904003,48.8566502 C55.3836899,51.1256158 58.3152386,54.2280788 60.4850462,58.1640394 C62.6548539,62.1 63.7397577,66.5684729 63.7397577,71.5694581 C63.7397577,76.4778325 62.6548539,80.9 60.4850462,84.8359606 C58.3152386,88.7719212 55.3836899,91.8743842 51.6904003,94.1433498 C47.9971106,96.4123153 43.7959937,97.546798 39.0870494,97.546798 Z M133.719203,110.049261 C140.459456,110.049261 146.507218,108.359113 151.862488,104.978818 C155.042179,102.971767 157.823125,100.540281 160.205323,97.6843577 L160.448547,97.3875074 L160.449386,102.547783 C160.449386,104.477988 161.050185,106.096497 162.251783,107.40331 L162.457612,107.618227 C163.79643,108.961084 165.481493,109.632512 167.512803,109.632512 C169.544112,109.632512 171.229175,108.961084 172.567993,107.618227 C173.90681,106.275369 174.576219,104.585222 174.576219,102.547783 L174.576219,102.547783 L174.576219,71.5694581 C174.576219,64.253202 172.891156,57.6778325 169.521029,51.8433498 C166.150902,46.008867 161.603539,41.4014778 155.87894,38.0211823 C150.154341,34.6408867 143.691085,32.9507389 136.48917,32.9507389 C129.287255,32.9507389 122.800915,34.6408867 117.03015,38.0211823 C111.259385,41.4014778 106.688939,46.008867 103.318812,51.8433498 C99.9486854,57.6778325 98.263622,64.253202 98.263622,71.5694581 C98.263622,78.8857143 99.810187,85.437931 102.903317,91.2261084 C105.996447,97.0142857 110.220647,101.598522 115.575917,104.978818 C120.931187,108.359113 126.978949,110.049261 133.719203,110.049261 Z M136.48917,97.546798 C131.872558,97.546798 127.694524,96.4123153 123.955068,94.1433498 C120.215612,91.8743842 117.260981,88.7719212 115.091173,84.8359606 C112.921365,80.9 111.836461,76.4778325 111.836461,71.5694581 C111.836461,66.5684729 112.921365,62.1 115.091173,58.1640394 C117.260981,54.2280788 120.215612,51.1256158 123.955068,48.8566502 C127.694524,46.5876847 131.872558,45.453202 136.48917,45.453202 C141.198114,45.453202 145.399231,46.5876847 149.092521,48.8566502 C152.78581,51.1256158 155.694276,54.2280788 157.817917,58.1640394 C159.941559,62.1 161.00338,66.5684729 161.00338,71.5694581 C161.00338,76.4778325 159.941559,80.9 157.817917,84.8359606 C155.694276,88.7719212 152.78581,91.8743842 149.092521,94.1433498 C145.399231,96.4123153 141.198114,97.546798 136.48917,97.546798 Z M233.752792,110.049261 C240.954707,110.049261 247.417963,108.359113 253.142562,104.978818 C258.867161,101.598522 263.414524,96.991133 266.784651,91.1566502 C270.154778,85.3221675 271.839841,78.746798 271.839841,71.4305419 L271.839841,71.4305419 L271.839841,8.08472906 C271.839841,5.9546798 271.193515,4.24137931 269.900864,2.94482759 C268.608213,1.64827586 266.900066,1 264.776425,1 C262.745115,1 261.060052,1.64827586 259.721234,2.94482759 C258.382417,4.24137931 257.713008,5.9546798 257.713008,8.08472906 L257.713008,8.08472906 L257.713008,45.5921182 C254.573712,41.7024631 250.695758,38.6231527 246.079146,36.3541872 C241.462534,34.0852217 236.430427,32.9507389 230.982824,32.9507389 C224.242571,32.9507389 218.194809,34.6408867 212.839539,38.0211823 C207.484269,41.4014778 203.260069,45.9857143 200.166939,51.7738916 C197.073809,57.562069 195.527244,64.1142857 195.527244,71.4305419 C195.527244,78.746798 197.212307,85.3221675 200.582434,91.1566502 C203.952561,96.991133 208.523007,101.598522 214.293772,104.978818 C220.064537,108.359113 226.550877,110.049261 233.752792,110.049261 Z M233.752792,97.546798 C229.13618,97.546798 224.958146,96.4123153 221.21869,94.1433498 C217.479234,91.8743842 214.524603,88.7487685 212.354795,84.7665025 C210.184987,80.7842365 209.100083,76.3389163 209.100083,71.4305419 C209.100083,66.4295567 210.184987,61.9842365 212.354795,58.0945813 C214.524603,54.2049261 217.479234,51.1256158 221.21869,48.8566502 C224.958146,46.5876847 229.13618,45.453202 233.752792,45.453202 C238.461736,45.453202 242.662853,46.5876847 246.356143,48.8566502 C250.049432,51.1256158 252.957898,54.2049261 255.081539,58.0945813 C257.205181,61.9842365 258.267002,66.4295567 258.267002,71.4305419 C258.267002,76.3389163 257.205181,80.7842365 255.081539,84.7665025 C252.957898,88.7487685 250.049432,91.8743842 246.356143,94.1433498 C242.662853,96.4123153 238.461736,97.546798 233.752792,97.546798 Z M309.133673,109.493596 C311.257314,109.493596 312.988544,108.799015 314.327361,107.409852 C315.666179,106.02069 316.335587,104.307389 316.335587,102.269951 L316.335587,102.269951 L316.335587,8.22364532 C316.335587,6.09359606 315.666179,4.35714286 314.327361,3.01428571 C312.988544,1.67142857 311.257314,1 309.133673,1 C307.102363,1 305.394217,1.67142857 304.009233,3.01428571 C302.62425,4.35714286 301.931758,6.09359606 301.931758,8.22364532 L301.931758,8.22364532 L301.931758,102.269951 C301.931758,104.307389 302.62425,106.02069 304.009233,107.409852 C305.394217,108.799015 307.102363,109.493596 309.133673,109.493596 Z M380.775098,110.049261 C388.254009,110.049261 394.855764,108.405419 400.580363,105.117734 C406.304962,101.830049 410.783076,97.2921182 414.014704,91.5039409 C417.246333,85.7157635 418.862147,79.070936 418.862147,71.5694581 C418.862147,63.9753695 417.22325,57.2842365 413.945455,51.4960591 C410.667661,45.7078818 406.166464,41.1699507 400.441865,37.882266 C394.717266,34.5945813 388.161677,32.9507389 380.775098,32.9507389 C373.296186,32.9507389 366.694431,34.5945813 360.969832,37.882266 C355.245233,41.1699507 350.744036,45.7078818 347.466242,51.4960591 C344.188447,57.2842365 342.54955,63.9753695 342.54955,71.5694581 C342.54955,79.070936 344.188447,85.7157635 347.466242,91.5039409 C350.744036,97.2921182 355.245233,101.830049 360.969832,105.117734 C366.694431,108.405419 373.296186,110.049261 380.775098,110.049261 Z M380.775098,97.546798 C375.973821,97.546798 371.726538,96.435468 368.033248,94.2128079 C364.339959,91.9901478 361.431493,88.9339901 359.307852,85.044335 C357.18421,81.1546798 356.122389,76.6630542 356.122389,71.5694581 C356.122389,66.4758621 357.18421,61.9610837 359.307852,58.0251232 C361.431493,54.0891626 364.339959,51.0098522 368.033248,48.7871921 C371.726538,46.564532 375.973821,45.453202 380.775098,45.453202 C385.576374,45.453202 389.823657,46.564532 393.516947,48.7871921 C397.210237,51.0098522 400.095619,54.0891626 402.173095,58.0251232 C404.25057,61.9610837 405.289308,66.4758621 405.289308,71.5694581 C405.289308,76.6630542 404.25057,81.1546798 402.173095,85.044335 C400.095619,88.9339901 397.210237,91.9901478 393.516947,94.2128079 C389.823657,96.435468 385.576374,97.546798 380.775098,97.546798 Z M478.03872,110.049261 C488.010602,110.049261 496.320503,106.946798 502.968425,100.741872 C504.261076,99.4453202 504.81507,97.9866995 504.630405,96.3660099 C504.445741,94.7453202 503.568584,93.2866995 501.998936,91.9901478 C500.798617,90.9714286 499.413633,90.5315271 497.843985,90.6704433 C496.274337,90.8093596 494.750855,91.4807882 493.273539,92.6847291 C491.24223,94.3517241 489.003173,95.5788177 486.556369,96.3660099 C484.109565,97.153202 481.270348,97.546798 478.03872,97.546798 C473.145111,97.546798 468.851662,96.4123153 465.158372,94.1433498 C461.465082,91.8743842 458.5797,88.7950739 456.502225,84.9054187 C454.424749,81.0157635 453.386011,76.5704433 453.386011,71.5694581 C453.386011,66.2906404 454.401666,61.7064039 456.432975,57.8167488 C458.464285,53.9270936 461.280418,50.8940887 464.881375,48.717734 C468.482333,46.5413793 472.637284,45.453202 477.346228,45.453202 C484.086481,45.453202 489.718748,47.8610837 494.243028,52.6768473 C495.535679,53.973399 496.966829,54.7837438 498.536477,55.1078818 C500.106125,55.4320197 501.537275,55.1310345 502.829926,54.2049261 C504.491907,53.0009852 505.507561,51.6118227 505.87689,50.0374384 C506.246219,48.4630542 505.784558,46.9349754 504.491907,45.453202 C500.890949,41.2857143 496.828331,38.1600985 492.304051,36.0763547 C487.779771,33.9926108 482.79383,32.9507389 477.346228,32.9507389 C470.051981,32.9507389 463.588724,34.5945813 457.956457,37.882266 C452.324191,41.1699507 447.892243,45.7310345 444.660615,51.5655172 C441.428986,57.4 439.813172,64.0679803 439.813172,71.5694581 C439.813172,78.8857143 441.452069,85.437931 444.729864,91.2261084 C448.007658,97.0142857 452.531938,101.598522 458.302703,104.978818 C464.073468,108.359113 470.65214,110.049261 478.03872,110.049261 Z"
                id="Padloc"
                stroke="#F2711C"
                fill="#F2711C"
                transform="translate(-2,-2)"
                opacity="0"
            >
                <animateTransform
                    attributeName="transform"
                    type="translate"
                    values="-2,-2; 0,0"
                    keyTimes="0;1"
                    calcMode="spline"
                    keySplines="0.65, 0, 0.35, 1"
                    begin="1s"
                    dur="1.5s"
                    fill="freeze"
                />
                <animate
                    attributeName="opacity"
                    values="0;1"
                    keyTimes="0;1"
                    calcMode="spline"
                    keySplines="0.65, 0, 0.35, 1"
                    begin="1s"
                    dur="1.5s"
                    fill="freeze"
                />
            </path>
            <path
                d="M7.06341643,141 C9.18705797,141 10.8952044,140.328571 12.1878558,138.985714 C13.4805072,137.642857 14.1268329,135.952709 14.1268329,133.915271 L14.1268329,133.915271 L14.1268329,96.4078818 C17.3584613,100.297537 21.2594985,103.376847 25.8299444,105.645813 C30.4003903,107.914778 35.4094144,109.049261 40.8570166,109.049261 C47.5972702,109.049261 53.645032,107.359113 59.000302,103.978818 C64.3555719,100.598522 68.579772,96.0142857 71.672902,90.2261084 C74.7660321,84.437931 76.3125971,77.8857143 76.3125971,70.5694581 C76.3125971,63.253202 74.6275337,56.6778325 71.2574069,50.8433498 C67.8872801,45.008867 63.3399173,40.4014778 57.6153183,37.0211823 C51.8907194,33.6408867 45.3812964,31.9507389 38.0870494,31.9507389 C30.8851346,31.9507389 24.4218777,33.6408867 18.6972788,37.0211823 C12.9726799,40.4014778 8.44840005,45.008867 5.12443937,50.8433498 C1.8004787,56.6778325 0.0923322409,63.253202 0,70.5694581 L0,70.5694581 L0,133.915271 C0,135.952709 0.669408747,137.642857 2.00822624,138.985714 C3.34704373,140.328571 5.03210713,141 7.06341643,141 Z M38.0870494,96.546798 C33.4704373,96.546798 29.2924034,95.4123153 25.5529477,93.1433498 C21.8134919,90.8743842 18.8819433,87.7719212 16.7583017,83.8359606 C14.6346602,79.9 13.5728394,75.4778325 13.5728394,70.5694581 C13.5728394,65.5684729 14.6346602,61.1 16.7583017,57.1640394 C18.8819433,53.2280788 21.8134919,50.1256158 25.5529477,47.8566502 C29.2924034,45.5876847 33.4704373,44.453202 38.0870494,44.453202 C42.7959937,44.453202 46.9971106,45.5876847 50.6904003,47.8566502 C54.3836899,50.1256158 57.3152386,53.2280788 59.4850462,57.1640394 C61.6548539,61.1 62.7397577,65.5684729 62.7397577,70.5694581 C62.7397577,75.4778325 61.6548539,79.9 59.4850462,83.8359606 C57.3152386,87.7719212 54.3836899,90.8743842 50.6904003,93.1433498 C46.9971106,95.4123153 42.7959937,96.546798 38.0870494,96.546798 Z M132.719203,109.049261 C139.459456,109.049261 145.507218,107.359113 150.862488,103.978818 C154.042179,101.971767 156.823125,99.5402806 159.205323,96.6843577 L159.448547,96.3875074 L159.449386,101.547783 C159.449386,103.477988 160.050185,105.096497 161.251783,106.40331 L161.457612,106.618227 C162.79643,107.961084 164.481493,108.632512 166.512803,108.632512 C168.544112,108.632512 170.229175,107.961084 171.567993,106.618227 C172.90681,105.275369 173.576219,103.585222 173.576219,101.547783 L173.576219,101.547783 L173.576219,70.5694581 C173.576219,63.253202 171.891156,56.6778325 168.521029,50.8433498 C165.150902,45.008867 160.603539,40.4014778 154.87894,37.0211823 C149.154341,33.6408867 142.691085,31.9507389 135.48917,31.9507389 C128.287255,31.9507389 121.800915,33.6408867 116.03015,37.0211823 C110.259385,40.4014778 105.688939,45.008867 102.318812,50.8433498 C98.9486854,56.6778325 97.263622,63.253202 97.263622,70.5694581 C97.263622,77.8857143 98.810187,84.437931 101.903317,90.2261084 C104.996447,96.0142857 109.220647,100.598522 114.575917,103.978818 C119.931187,107.359113 125.978949,109.049261 132.719203,109.049261 Z M135.48917,96.546798 C130.872558,96.546798 126.694524,95.4123153 122.955068,93.1433498 C119.215612,90.8743842 116.260981,87.7719212 114.091173,83.8359606 C111.921365,79.9 110.836461,75.4778325 110.836461,70.5694581 C110.836461,65.5684729 111.921365,61.1 114.091173,57.1640394 C116.260981,53.2280788 119.215612,50.1256158 122.955068,47.8566502 C126.694524,45.5876847 130.872558,44.453202 135.48917,44.453202 C140.198114,44.453202 144.399231,45.5876847 148.092521,47.8566502 C151.78581,50.1256158 154.694276,53.2280788 156.817917,57.1640394 C158.941559,61.1 160.00338,65.5684729 160.00338,70.5694581 C160.00338,75.4778325 158.941559,79.9 156.817917,83.8359606 C154.694276,87.7719212 151.78581,90.8743842 148.092521,93.1433498 C144.399231,95.4123153 140.198114,96.546798 135.48917,96.546798 Z M232.752792,109.049261 C239.954707,109.049261 246.417963,107.359113 252.142562,103.978818 C257.867161,100.598522 262.414524,95.991133 265.784651,90.1566502 C269.154778,84.3221675 270.839841,77.746798 270.839841,70.4305419 L270.839841,70.4305419 L270.839841,7.08472906 C270.839841,4.9546798 270.193515,3.24137931 268.900864,1.94482759 C267.608213,0.648275862 265.900066,0 263.776425,0 C261.745115,0 260.060052,0.648275862 258.721234,1.94482759 C257.382417,3.24137931 256.713008,4.9546798 256.713008,7.08472906 L256.713008,7.08472906 L256.713008,44.5921182 C253.573712,40.7024631 249.695758,37.6231527 245.079146,35.3541872 C240.462534,33.0852217 235.430427,31.9507389 229.982824,31.9507389 C223.242571,31.9507389 217.194809,33.6408867 211.839539,37.0211823 C206.484269,40.4014778 202.260069,44.9857143 199.166939,50.7738916 C196.073809,56.562069 194.527244,63.1142857 194.527244,70.4305419 C194.527244,77.746798 196.212307,84.3221675 199.582434,90.1566502 C202.952561,95.991133 207.523007,100.598522 213.293772,103.978818 C219.064537,107.359113 225.550877,109.049261 232.752792,109.049261 Z M232.752792,96.546798 C228.13618,96.546798 223.958146,95.4123153 220.21869,93.1433498 C216.479234,90.8743842 213.524603,87.7487685 211.354795,83.7665025 C209.184987,79.7842365 208.100083,75.3389163 208.100083,70.4305419 C208.100083,65.4295567 209.184987,60.9842365 211.354795,57.0945813 C213.524603,53.2049261 216.479234,50.1256158 220.21869,47.8566502 C223.958146,45.5876847 228.13618,44.453202 232.752792,44.453202 C237.461736,44.453202 241.662853,45.5876847 245.356143,47.8566502 C249.049432,50.1256158 251.957898,53.2049261 254.081539,57.0945813 C256.205181,60.9842365 257.267002,65.4295567 257.267002,70.4305419 C257.267002,75.3389163 256.205181,79.7842365 254.081539,83.7665025 C251.957898,87.7487685 249.049432,90.8743842 245.356143,93.1433498 C241.662853,95.4123153 237.461736,96.546798 232.752792,96.546798 Z M308.133673,108.493596 C310.257314,108.493596 311.988544,107.799015 313.327361,106.409852 C314.666179,105.02069 315.335587,103.307389 315.335587,101.269951 L315.335587,101.269951 L315.335587,7.22364532 C315.335587,5.09359606 314.666179,3.35714286 313.327361,2.01428571 C311.988544,0.671428571 310.257314,0 308.133673,0 C306.102363,0 304.394217,0.671428571 303.009233,2.01428571 C301.62425,3.35714286 300.931758,5.09359606 300.931758,7.22364532 L300.931758,7.22364532 L300.931758,101.269951 C300.931758,103.307389 301.62425,105.02069 303.009233,106.409852 C304.394217,107.799015 306.102363,108.493596 308.133673,108.493596 Z M379.775098,109.049261 C387.254009,109.049261 393.855764,107.405419 399.580363,104.117734 C405.304962,100.830049 409.783076,96.2921182 413.014704,90.5039409 C416.246333,84.7157635 417.862147,78.070936 417.862147,70.5694581 C417.862147,62.9753695 416.22325,56.2842365 412.945455,50.4960591 C409.667661,44.7078818 405.166464,40.1699507 399.441865,36.882266 C393.717266,33.5945813 387.161677,31.9507389 379.775098,31.9507389 C372.296186,31.9507389 365.694431,33.5945813 359.969832,36.882266 C354.245233,40.1699507 349.744036,44.7078818 346.466242,50.4960591 C343.188447,56.2842365 341.54955,62.9753695 341.54955,70.5694581 C341.54955,78.070936 343.188447,84.7157635 346.466242,90.5039409 C349.744036,96.2921182 354.245233,100.830049 359.969832,104.117734 C365.694431,107.405419 372.296186,109.049261 379.775098,109.049261 Z M379.775098,96.546798 C374.973821,96.546798 370.726538,95.435468 367.033248,93.2128079 C363.339959,90.9901478 360.431493,87.9339901 358.307852,84.044335 C356.18421,80.1546798 355.122389,75.6630542 355.122389,70.5694581 C355.122389,65.4758621 356.18421,60.9610837 358.307852,57.0251232 C360.431493,53.0891626 363.339959,50.0098522 367.033248,47.7871921 C370.726538,45.564532 374.973821,44.453202 379.775098,44.453202 C384.576374,44.453202 388.823657,45.564532 392.516947,47.7871921 C396.210237,50.0098522 399.095619,53.0891626 401.173095,57.0251232 C403.25057,60.9610837 404.289308,65.4758621 404.289308,70.5694581 C404.289308,75.6630542 403.25057,80.1546798 401.173095,84.044335 C399.095619,87.9339901 396.210237,90.9901478 392.516947,93.2128079 C388.823657,95.435468 384.576374,96.546798 379.775098,96.546798 Z M477.03872,109.049261 C487.010602,109.049261 495.320503,105.946798 501.968425,99.7418719 C503.261076,98.4453202 503.81507,96.9866995 503.630405,95.3660099 C503.445741,93.7453202 502.568584,92.2866995 500.998936,90.9901478 C499.798617,89.9714286 498.413633,89.5315271 496.843985,89.6704433 C495.274337,89.8093596 493.750855,90.4807882 492.273539,91.6847291 C490.24223,93.3517241 488.003173,94.5788177 485.556369,95.3660099 C483.109565,96.153202 480.270348,96.546798 477.03872,96.546798 C472.145111,96.546798 467.851662,95.4123153 464.158372,93.1433498 C460.465082,90.8743842 457.5797,87.7950739 455.502225,83.9054187 C453.424749,80.0157635 452.386011,75.5704433 452.386011,70.5694581 C452.386011,65.2906404 453.401666,60.7064039 455.432975,56.8167488 C457.464285,52.9270936 460.280418,49.8940887 463.881375,47.717734 C467.482333,45.5413793 471.637284,44.453202 476.346228,44.453202 C483.086481,44.453202 488.718748,46.8610837 493.243028,51.6768473 C494.535679,52.973399 495.966829,53.7837438 497.536477,54.1078818 C499.106125,54.4320197 500.537275,54.1310345 501.829926,53.2049261 C503.491907,52.0009852 504.507561,50.6118227 504.87689,49.0374384 C505.246219,47.4630542 504.784558,45.9349754 503.491907,44.453202 C499.890949,40.2857143 495.828331,37.1600985 491.304051,35.0763547 C486.779771,32.9926108 481.79383,31.9507389 476.346228,31.9507389 C469.051981,31.9507389 462.588724,33.5945813 456.956457,36.882266 C451.324191,40.1699507 446.892243,44.7310345 443.660615,50.5655172 C440.428986,56.4 438.813172,63.0679803 438.813172,70.5694581 C438.813172,77.8857143 440.452069,84.437931 443.729864,90.2261084 C447.007658,96.0142857 451.531938,100.598522 457.302703,103.978818 C463.073468,107.359113 469.65214,109.049261 477.03872,109.049261 Z"
                id="Padloc"
                stroke="#F2711C"
                fill="#FFFFFF"
                stroke-dasharray="600"
                fill-opacity="0"
            >
                <animate
                    attributeName="stroke-dashoffset"
                    values="600;0"
                    keyTimes="0;1"
                    calcMode="spline"
                    keySplines="0.65, 0, 0.35, 1"
                    dur="2.5s"
                />
                <animate
                    attributeName="fill-opacity"
                    values="0;1"
                    keyTimes="0;1"
                    calcMode="spline"
                    keySplines="0.65, 0, 0.35, 1"
                    begin="1s"
                    dur="1.5s"
                    fill="freeze"
                />
            </path>
        </g>
    </g>
</svg>
